<?xml version="1.0" encoding="UTF-8" standalone="no"?>
<!-- Created with Inkscape (http://www.inkscape.org/) -->

<svg
   width="75mm"
   height="37mm"
   viewBox="0 0 75 37"
   version="1.1"
   id="svg1358"
   xml:space="preserve"
   inkscape:version="1.2.2 (732a01da63, 2022-12-09)"
   sodipodi:docname="logoConv.svg"
   xmlns:inkscape="http://www.inkscape.org/namespaces/inkscape"
   xmlns:sodipodi="http://sodipodi.sourceforge.net/DTD/sodipodi-0.dtd"
   xmlns="http://www.w3.org/2000/svg"
   xmlns:svg="http://www.w3.org/2000/svg"><sodipodi:namedview
     id="namedview1360"
     pagecolor="#ffffff"
     bordercolor="#eeeeee"
     borderopacity="1"
     inkscape:showpageshadow="0"
     inkscape:pageopacity="1"
     inkscape:pagecheckerboard="0"
     inkscape:deskcolor="#505050"
     inkscape:document-units="mm"
     showgrid="false"
     showguides="true"
     inkscape:zoom="1.3026915"
     inkscape:cx="120.13589"
     inkscape:cy="134.33725"
     inkscape:window-width="1440"
     inkscape:window-height="829"
     inkscape:window-x="1358"
     inkscape:window-y="-4"
     inkscape:window-maximized="1"
     inkscape:current-layer="layer1"><sodipodi:guide
       position="-130.40425,-86.510632"
       orientation="1,0"
       id="guide1463"
       inkscape:locked="false" /></sodipodi:namedview><defs
     id="defs1355" /><g
     inkscape:label="Camada 1"
     inkscape:groupmode="layer"
     id="layer1"><g
       id="g1405"
       transform="matrix(0.14855131,0,0,0.14846893,2.8042377,-1.350791)"><path
         style="fill:#ff0000;stroke-width:0.264583"
         d="m 139.00923,87.229258 c -4.7509,-1.69778 -6.48409,-7.16103 -3.28629,-10.35883 1.99571,-1.995706 1.75226,-1.963819 15.04282,-1.970333 l 11.85842,-0.0058 -0.0604,-8.929687 c -0.0578,-8.550449 0.17574,-11.972395 0.81712,-11.972395 0.099,0 0.30704,-0.278802 0.4623,-0.619562 1.41007,-3.094762 7.62992,-1.466501 9.43017,2.468676 l 0.54604,1.193594 -0.0665,11.509374 c -0.11584,20.039423 0.9159,19.055943 -19.97268,19.038383 -10.59586,-0.009 -14.03739,-0.0913 -14.77099,-0.35341 z"
         id="path1391" /><path
         style="fill:#ff6600;stroke-width:0.264583"
         d="m 36.51243,109.85379 c -6.154383,-2.14131 -10.478569,-4.08591 -12.217791,-5.49438 -8.353451,-6.764846 7.196314,-35.578778 27.541999,-51.035704 0.569545,-0.432691 1.641107,-1.254019 2.38125,-1.825169 11.405229,-8.801174 33.196824,-16.240469 47.707392,-16.286522 l 1.6471,-0.0052 -0.22859,0.601223 c -0.61628,1.620949 -0.51736,23.767649 0.12347,27.643046 l 0.14219,0.859896 -2.32709,0.0046 c -13.841494,0.02728 -29.918214,7.677147 -40.030218,19.047788 -0.509323,0.57272 -1.372526,1.51614 -1.918229,2.09649 -0.545703,0.58035 -0.992187,1.22857 -0.992187,1.44047 0,0.21191 -0.280625,0.60358 -0.623613,0.87038 -0.504153,0.39216 -3.913589,5.252776 -5.075258,7.235466 -0.151201,0.25807 -0.407001,0.63074 -0.568441,0.82816 -0.553324,0.67665 -3.797933,7.123176 -4.42894,8.799596 -2.639171,7.01164 -4.063717,7.67956 -11.133044,5.21991 z"
         id="path1389" /><path
         style="fill:#ff0000;stroke-width:0.264583"
         d="m 13.703792,148.43682 c -3.430369,-1.73203 -3.9131067,-3.37892 -3.9131067,-13.34984 0,-14.66789 1.8334277,-16.31627 13.3614587,-12.01288 1.964531,0.73336 4.583906,1.68402 5.820833,2.11258 4.224623,1.46371 6.242637,2.50291 7.588975,3.90803 2.09478,2.18623 2.665208,4.86023 1.628939,7.63599 -1.138928,3.05074 -2.177256,3.98033 -6.439789,5.76535 -1.309687,0.54846 -4.28625,1.82798 -6.614583,2.84337 -8.68282,3.78662 -9.584081,4.0308 -11.432727,3.0974 z"
         id="path1387" /><path
         style="fill:#ff0000;stroke-width:0.264583"
         d="m 165.32512,219.09398 c -0.60438,-0.30851 -1.43782,-1.04982 -1.85208,-1.64734 l -0.7532,-1.08641 -0.21655,-9.67643 c -0.25724,-11.49537 1.67547,-9.78718 -11.1749,-9.87674 -12.04996,-0.084 -11.18965,0.0422 -13.80335,-2.02385 -4.14291,-3.27478 -3.66729,-9.03912 0.85314,-10.33979 0.75508,-0.21726 5.0781,-0.28151 15.0872,-0.22423 l 14.02887,0.0803 1.76888,0.87101 c 2.03583,1.00246 3.42095,2.45928 4.02568,4.23406 0.59966,1.75991 0.6124,23.8871 0.0149,25.89906 -1.01035,3.40223 -5.01344,5.30396 -7.9786,3.79038 z"
         id="path1385" /><path
         style="fill:#ff6600;stroke-width:0.264583"
         d="M 98.69068,227.90273 C 67.636194,225.79235 42.454897,209.18426 24.957034,179.27239 19.030648,169.14148 20.387539,166.22855 33.7779,160.33602 c 9.620932,-4.23377 11.298033,-3.92023 14.745065,2.75663 1.040381,2.0152 2.258964,4.19796 2.707968,4.85056 0.449,0.6526 1.081513,1.65335 1.405585,2.22389 2.307598,4.0626 10.044755,12.81704 14.837973,16.78888 9.096808,7.53795 22.895858,13.21842 33.597439,13.83062 2.97736,0.17032 3.16979,0.21456 3.09125,0.71079 -0.0461,0.29104 -0.18983,1.18401 -0.31948,1.98438 -0.72525,4.47736 -1.20302,22.6861 -0.63414,24.16858 0.17517,0.4565 -0.75271,0.50832 -4.51888,0.25238 z"
         id="path1381" /></g><g
       aria-label="ONVERGE"
       transform="scale(0.94923989,1.0534745)"
       id="text1461"
       style="font-weight:bold;font-size:12.4226px;font-family:'Arial Rounded MT Bold';-inkscape-font-specification:'Arial Rounded MT Bold,  Bold';text-align:center;text-anchor:middle;fill:#ff0000;stroke-width:0.232927"><path
         d="m 17.136779,13.33755 q 1.382985,0 2.371698,0.564112 0.994778,0.558047 1.504299,1.595285 0.509521,1.031173 0.509521,2.426289 0,1.031173 -0.279024,1.874308 -0.279023,0.843136 -0.837069,1.46184 -0.558047,0.618703 -1.370854,0.946252 -0.812806,0.327549 -1.862176,0.327549 -1.043305,0 -1.868243,-0.333614 -0.824938,-0.339681 -1.376919,-0.952319 -0.551981,-0.612638 -0.83707,-1.47397 -0.279023,-0.861333 -0.279023,-1.862177 0,-1.025107 0.291155,-1.880374 0.29722,-0.855267 0.855267,-1.455774 0.558046,-0.600506 1.358721,-0.915924 0.800676,-0.321483 1.819717,-0.321483 z m 2.559735,4.573555 q 0,-0.976582 -0.315417,-1.692337 -0.315418,-0.715755 -0.903793,-1.079699 -0.582309,-0.370009 -1.340525,-0.370009 -0.539849,0 -1.000844,0.206235 -0.454929,0.200169 -0.788544,0.588375 -0.327549,0.388206 -0.521652,0.994779 -0.188037,0.600506 -0.188037,1.352656 0,0.758215 0.188037,1.370853 0.194103,0.612638 0.539849,1.019041 0.351812,0.400338 0.800676,0.600507 0.454929,0.200169 0.994778,0.200169 0.691493,0 1.267736,-0.345746 0.58231,-0.345747 0.92199,-1.067568 0.345746,-0.721821 0.345746,-1.777256 z"
         id="path173" /><path
         d="m 25.410425,14.417248 3.463527,5.240785 v -5.28931 q 0,-0.515587 0.218367,-0.770347 0.224431,-0.260826 0.600506,-0.260826 0.388206,0 0.612638,0.260826 0.224432,0.25476 0.224432,0.770347 v 6.993778 q 0,1.170684 -0.970516,1.170684 -0.242629,0 -0.436732,-0.07279 -0.194103,-0.06672 -0.363943,-0.218366 -0.16984,-0.151643 -0.315418,-0.351812 -0.145577,-0.206235 -0.291154,-0.418535 l -3.378608,-5.180127 v 5.210455 q 0,0.509521 -0.236563,0.770347 -0.236563,0.260826 -0.606572,0.260826 -0.382141,0 -0.612638,-0.260826 -0.230498,-0.266892 -0.230498,-0.770347 V 14.64168 q 0,-0.436732 0.09705,-0.685426 0.115248,-0.272958 0.38214,-0.442798 0.266892,-0.175906 0.576244,-0.175906 0.242629,0 0.412469,0.07885 0.175906,0.07886 0.303286,0.212301 0.133446,0.133445 0.266892,0.345746 0.139512,0.2123 0.285089,0.442797 z"
         id="path175" /><path
         d="m 33.817517,14.520366 2.01382,5.962605 2.019885,-6.005065 q 0.157709,-0.473127 0.236564,-0.655098 0.07885,-0.188038 0.260826,-0.333615 0.181971,-0.151643 0.497389,-0.151643 0.230497,0 0.424601,0.115249 0.200168,0.115248 0.309351,0.309351 0.115249,0.188038 0.115249,0.382141 0,0.133446 -0.03639,0.291155 -0.03639,0.151643 -0.09099,0.303286 -0.05459,0.145577 -0.109183,0.303286 l -2.153332,5.810962 q -0.115248,0.333615 -0.230497,0.636901 -0.115249,0.29722 -0.266892,0.527718 -0.151643,0.224432 -0.406403,0.370009 -0.248695,0.145577 -0.612638,0.145577 -0.363944,0 -0.618704,-0.145577 -0.248695,-0.139512 -0.406403,-0.370009 -0.151643,-0.236563 -0.266892,-0.533784 -0.115249,-0.29722 -0.230498,-0.630835 l -2.116937,-5.762436 q -0.05459,-0.157709 -0.115249,-0.309352 -0.05459,-0.151643 -0.09705,-0.327549 -0.03639,-0.175906 -0.03639,-0.297221 0,-0.309351 0.248694,-0.564112 0.248695,-0.25476 0.62477,-0.25476 0.460995,0 0.649032,0.285089 0.194103,0.279023 0.394272,0.897727 z"
         id="path177" /><path
         d="m 46.907345,14.878243 h -4.057968 v 2.183661 h 3.736485 q 0.412469,0 0.612638,0.188037 0.206235,0.181972 0.206235,0.485258 0,0.303286 -0.200169,0.497389 -0.200169,0.188037 -0.618704,0.188037 h -3.736485 v 2.529407 h 4.19748 q 0.424601,0 0.636901,0.200169 0.218366,0.194103 0.218366,0.521652 0,0.315417 -0.218366,0.515586 -0.2123,0.194103 -0.636901,0.194103 h -4.895038 q -0.588375,0 -0.849201,-0.260826 -0.254761,-0.260826 -0.254761,-0.843135 v -6.684427 q 0,-0.388206 0.115249,-0.630835 0.115249,-0.248694 0.357878,-0.357877 0.248694,-0.115249 0.630835,-0.115249 h 4.755526 q 0.430667,0 0.636901,0.194103 0.212301,0.188037 0.212301,0.497389 0,0.315418 -0.212301,0.509521 -0.206234,0.188037 -0.636901,0.188037 z"
         id="path179" /><path
         d="m 51.753857,18.578334 h -0.630835 v 2.856955 q 0,0.564113 -0.248695,0.831004 -0.248695,0.266892 -0.649032,0.266892 -0.430667,0 -0.66723,-0.279023 -0.236563,-0.279023 -0.236563,-0.818873 v -6.842135 q 0,-0.582309 0.260826,-0.843135 0.260826,-0.260826 0.843136,-0.260826 h 2.929744 q 0.606572,0 1.037238,0.05459 0.430666,0.04853 0.776413,0.206235 0.418534,0.175906 0.740018,0.503455 0.321483,0.327549 0.485258,0.764281 0.16984,0.430666 0.16984,0.915924 0,0.994779 -0.564112,1.589219 -0.558047,0.594441 -1.698403,0.843136 0.479192,0.25476 0.915924,0.752149 0.436732,0.49739 0.776413,1.061502 0.345746,0.558046 0.533783,1.012976 0.194104,0.448863 0.194104,0.618703 0,0.175906 -0.115249,0.351812 -0.109183,0.16984 -0.303286,0.266892 -0.194103,0.103117 -0.448864,0.103117 -0.303286,0 -0.50952,-0.145577 Q 55.13853,22.248096 54.986887,22.02973 54.84131,21.811364 54.586549,21.386764 l -0.721821,-1.201013 q -0.388206,-0.661164 -0.697558,-1.00691 -0.303286,-0.345746 -0.618704,-0.473127 -0.315417,-0.12738 -0.794609,-0.12738 z m 1.031173,-3.736485 h -1.662008 v 2.444486 h 1.613482 q 0.649032,0 1.09183,-0.109183 0.442798,-0.115248 0.673295,-0.38214 0.236563,-0.272958 0.236563,-0.746084 0,-0.370009 -0.188037,-0.649032 -0.188037,-0.285089 -0.521652,-0.424601 -0.315418,-0.133446 -1.243473,-0.133446 z"
         id="path181" /><path
         d="m 66.226674,18.766372 v 1.704468 q 0,0.33968 -0.06672,0.545915 -0.06672,0.200168 -0.248694,0.363943 -0.175906,0.163774 -0.45493,0.315418 -0.806741,0.436732 -1.552825,0.6369 -0.746084,0.200169 -1.625613,0.200169 -1.025107,0 -1.868243,-0.315417 -0.843135,-0.315418 -1.437576,-0.915924 -0.594441,-0.600507 -0.915924,-1.455774 -0.315418,-0.855267 -0.315418,-1.910702 0,-1.037239 0.309352,-1.898572 0.309352,-0.861332 0.909858,-1.461839 0.600507,-0.600506 1.46184,-0.915924 0.861332,-0.321483 1.953162,-0.321483 0.897727,0 1.58922,0.242629 0.691492,0.236563 1.122158,0.600506 0.430667,0.363944 0.649033,0.770347 0.218366,0.406403 0.218366,0.721821 0,0.339681 -0.254761,0.582309 -0.248694,0.236564 -0.600506,0.236564 -0.194103,0 -0.376075,-0.09099 -0.175906,-0.09099 -0.297221,-0.254761 Q 64.09154,15.624327 63.861042,15.357435 63.630545,15.090544 63.236273,14.908572 62.848067,14.7266 62.241494,14.7266 q -0.624769,0 -1.116093,0.218366 -0.491323,0.212301 -0.843135,0.62477 -0.345746,0.406403 -0.533784,1.000844 -0.181971,0.594441 -0.181971,1.316262 0,1.564956 0.715755,2.408092 0.721821,0.843135 2.007754,0.843135 0.62477,0 1.170685,-0.163774 0.55198,-0.163775 1.116093,-0.467061 v -1.443642 h -1.395117 q -0.503455,0 -0.764281,-0.151643 -0.25476,-0.151643 -0.25476,-0.515587 0,-0.29722 0.2123,-0.491323 0.218366,-0.194103 0.588375,-0.194103 h 2.044149 q 0.376075,0 0.636901,0.06672 0.260826,0.06672 0.418535,0.29722 0.163774,0.230498 0.163774,0.691493 z"
         id="path183" /><path
         d="m 73.80276,14.878243 h -4.057969 v 2.183661 h 3.736485 q 0.41247,0 0.612638,0.188037 0.206235,0.181972 0.206235,0.485258 0,0.303286 -0.200169,0.497389 -0.200169,0.188037 -0.618704,0.188037 h -3.736485 v 2.529407 h 4.19748 q 0.424601,0 0.636901,0.200169 0.218366,0.194103 0.218366,0.521652 0,0.315417 -0.218366,0.515586 -0.2123,0.194103 -0.636901,0.194103 h -4.895038 q -0.588375,0 -0.849201,-0.260826 -0.25476,-0.260826 -0.25476,-0.843135 v -6.684427 q 0,-0.388206 0.115248,-0.630835 0.115249,-0.248694 0.357878,-0.357877 0.248695,-0.115249 0.630835,-0.115249 h 4.755527 q 0.430666,0 0.636901,0.194103 0.2123,0.188037 0.2123,0.497389 0,0.315418 -0.2123,0.509521 -0.206235,0.188037 -0.636901,0.188037 z"
         id="path185" /></g></g></svg>
